# xmcd
#
# Track frame offsets: 
#        150
#        22422
#        45957
#        61765
#        84940
#        113712
#        131570
#        161077
#        179230
#        201587
#
# Disc length: 2966 seconds
#
# Revision: 2
# Processed by: cddbd v1.5.2PL0 Copyright (c) Steve Scherf et al.
# Submitted via: ExactAudioCopy v1.0b3
#
DISCID=8b0b940a
DTITLE=Fleetwood Mac - Live In London '68
DYEAR=2001
DGENRE=Blues
TTITLE0=Got To Move
TTITLE1=I Held My Baby Last Night
TTITLE2=My Baby's Sweet
TTITLE3=My Baby's A Good 'Un
TTITLE4=Don't Know Which Way To Go
TTITLE5=Buzz Me
TTITLE6=The Dream
TTITLE7=The World Keeps On Turning
TTITLE8=How Blue Can You Get
TTITLE9=Bleeding Heart
EXTD=Recorded live in London - April, 1968\nPeter Green - lead guitar,
EXTD=vocals\nJohn McVie - bass guitar\nJeremy Spencer - lead guitar, 
EXTD=vocals\nMick Fleetwood - drums 
EXTT0=
EXTT1=
EXTT2=
EXTT3=
EXTT4=
EXTT5=
EXTT6=
EXTT7=
EXTT8=
EXTT9=
PLAYORDER=
